<?xml version="1.0" encoding="UTF-8" standalone="no"?>
<svg width="41px" height="41px" viewBox="0 0 41 41" version="1.1" xmlns="http://www.w3.org/2000/svg" xmlns:xlink="http://www.w3.org/1999/xlink">
    <!-- Generator: Sketch 39.1 (31720) - http://www.bohemiancoding.com/sketch -->
    <title>user avatar small</title>
    <desc>Created with Sketch.</desc>
    <defs></defs>
    <g id="User-profile" stroke="none" stroke-width="1" fill="none" fill-rule="evenodd">
        <g id="header-with-user-name" transform="translate(-996.000000, -6.000000)">
            <g id="header">
                <g id="user-avatar-small" transform="translate(996.000000, 6.000000)">
                    <g id="Layer_1">
                        <circle id="Oval" fill="#556080" cx="20.4971456" cy="20.4971456" r="20.4971456"></circle>
                        <path d="M20.4958481,40.9943776 C27.2887869,40.9943776 33.3074831,37.6882553 37.0370127,32.5990654 C36.3440781,31.6060696 33.6181835,28.7044979 24.4435253,26.4968122 C24.4435253,24.41377 24.2361034,23.166038 24.2361034,23.166038 C24.2361034,23.166038 26.9425359,19.4174789 27.1503038,14.2123819 C27.1503038,13.38477 27.5568439,7.51433122 20.4884958,7.2486097 L20.4884958,7.23987342 C20.4710232,7.23987342 20.4554536,7.24376582 20.4364241,7.24376582 C20.4182595,7.24376582 20.4031224,7.23987342 20.3849578,7.23987342 L20.3849578,7.2486097 C13.3179072,7.51398523 13.7231498,13.3848565 13.7231498,14.2121224 C13.9305717,19.4171329 16.6373502,23.1657785 16.6373502,23.1657785 C16.6373502,23.1657785 16.4282848,24.4135105 16.4282848,26.4965527 C7.49625316,28.6458523 4.67780591,31.4526224 3.89621097,32.5152489 C7.62081013,37.6513207 13.6664072,40.9943776 20.4958481,40.9943776 L20.4958481,40.9943776 Z" id="Shape" fill="#E7ECED"></path>
                    </g>
                </g>
            </g>
        </g>
    </g>
</svg>